<svg xmlns="http://www.w3.org/2000/svg" width="22.836" height="25.158" viewBox="0 0 22.836 25.158"><defs><style>.a{fill:#fff;}</style></defs><g transform="translate(0)"><path class="a" d="M66.205,1501.031H82.061a.773.773,0,0,1,.759.925l-1.548,7.741a.773.773,0,0,1-.759.623H67.894l.493,2.709H79.739a.388.388,0,0,1,.387.387v.774a.388.388,0,0,1-.387.387h-12a.774.774,0,0,1-.762-.635L64,1497.548H60.387a.388.388,0,0,1-.387-.387v-.774a.388.388,0,0,1,.387-.387h4.257a.774.774,0,0,1,.762.635Zm2.7,20.126a2.322,2.322,0,1,1,2.322-2.322A2.323,2.323,0,0,1,68.9,1521.158Zm9.289,0a2.322,2.322,0,1,1,2.322-2.322A2.323,2.323,0,0,1,78.191,1521.158Z" transform="translate(-60 -1496)"/></g></svg>