<svg xmlns="http://www.w3.org/2000/svg" xmlns:xlink="http://www.w3.org/1999/xlink" width="133.615" height="36.589" viewBox="0 0 133.615 36.589"><defs><style>.a{fill:url(#a);}.b{fill:url(#b);}.c{fill:url(#c);}.d,.h{opacity:0.3;}.d{fill:url(#d);}.e{fill:url(#e);}.f{fill:url(#f);}.g{fill:url(#g);}.h{fill:url(#h);}.i{fill:url(#i);}.j{fill:url(#j);}.k{fill:url(#k);}.l{fill:url(#l);}.m{fill:url(#m);}</style><linearGradient id="a" x1="-0.808" y1="-0.721" x2="-1.434" y2="0.164" gradientUnits="objectBoundingBox"><stop offset="0" stop-color="#29f2e4"/><stop offset="0.3" stop-color="#23cfd8"/><stop offset="1" stop-color="#1cabcc"/></linearGradient><linearGradient id="b" x1="-1.401" y1="0.636" x2="-1.401" y2="-0.355" gradientUnits="objectBoundingBox"><stop offset="0" stop-color="#00c7b8"/><stop offset="0.675" stop-color="#1cabcc"/></linearGradient><linearGradient id="c" x1="-0.486" y1="0.691" x2="0.52" y2="-0.315" gradientUnits="objectBoundingBox"><stop offset="0" stop-color="#00ffec"/><stop offset="0.4" stop-color="#1cabcc"/><stop offset="0.65" stop-color="#1cabcc"/><stop offset="1" stop-color="#00c7b8"/></linearGradient><linearGradient id="d" x1="-16.572" y1="-38.163" x2="-16.159" y2="-38.772" gradientUnits="objectBoundingBox"><stop offset="0.502" stop-color="#383838" stop-opacity="0"/><stop offset="0.93" stop-color="#383838" stop-opacity="0.859"/><stop offset="1" stop-color="#383838"/></linearGradient><linearGradient id="e" x1="5.069" y1="-24.127" x2="4.442" y2="-23.241" xlink:href="#a"/><linearGradient id="f" x1="4.475" y1="-10.913" x2="4.475" y2="-11.904" xlink:href="#b"/><linearGradient id="g" x1="1.55" y1="-7.192" x2="2.555" y2="-8.198" gradientUnits="objectBoundingBox"><stop offset="0" stop-color="#1cabcc"/><stop offset="1" stop-color="#00c7b8"/></linearGradient><linearGradient id="h" x1="-30.13" y1="-17.054" x2="-29.717" y2="-17.663" xlink:href="#d"/><linearGradient id="i" x1="0.5" y1="0.1" x2="0.5" y2="1.258" xlink:href="#g"/><linearGradient id="j" x1="0.5" y1="-0.158" x2="0.5" y2="0.971" xlink:href="#g"/><linearGradient id="k" x1="0.5" y1="-0.22" x2="0.5" y2="1.35" xlink:href="#g"/><linearGradient id="l" x1="0.5" y1="-0.224" x2="0.5" y2="1.379" xlink:href="#g"/><linearGradient id="m" x1="0.5" y1="-0.22" x2="0.5" y2="1.35" xlink:href="#g"/></defs><g transform="translate(-86.6 -185.2)"><g transform="translate(86.6 185.2)"><g transform="translate(0 3.85)"><path class="a" d="M92.665,286.871,86.6,282.865l6.061-6.065Z" transform="translate(-86.6 -276.8)"/></g><g transform="translate(0 9.915)"><path class="b" d="M86.6,439.716V421.1l6.065,4.006Z" transform="translate(-86.6 -421.1)"/></g><path class="c" d="M106.582,185.2,92.665,199.121,86.6,213.731,115.161,185.2Z" transform="translate(-86.6 -185.2)"/><path class="d" d="M92.665,286.871,86.6,282.865l6.061-6.065Z" transform="translate(-86.6 -272.95)"/><g transform="translate(0.799 0.799)"><g transform="translate(22.495 14.614)"><path class="e" d="M640.8,551.9l6.065,4.006-6.061,6.065Z" transform="translate(-640.8 -551.9)"/></g><g transform="translate(22.495)"><path class="f" d="M646.865,204.2v18.62l-6.065-4.006Z" transform="translate(-640.8 -204.2)"/></g><path class="g" d="M114.179,232.735,128.1,218.814l6.065-14.614L105.6,232.735Z" transform="translate(-105.6 -204.2)"/><path class="h" d="M640.8,551.9l6.065,4.006-6.061,6.065Z" transform="translate(-618.305 -537.286)"/></g></g><g transform="translate(121.814 185.208)"><path class="i" d="M934.278,189.46q-5.271,0-5.271,3.695a3,3,0,0,0,1.244,2.719,23.938,23.938,0,0,0,5.5,1.992,14.685,14.685,0,0,1,6,2.82q1.74,1.639,1.744,5.166,0,4.483-2.551,6.7a10.234,10.234,0,0,1-6.952,2.219,41.405,41.405,0,0,1-7.8-.828l-1.492-.29.458-3.695a70.579,70.579,0,0,0,8.549.748q5.145,0,5.145-4.565a3.044,3.044,0,0,0-1.164-2.635,17.667,17.667,0,0,0-5.229-1.866,14.22,14.22,0,0,1-6.061-2.8q-1.992-1.784-1.992-5.645a6.959,6.959,0,0,1,2.509-5.83,10.978,10.978,0,0,1,6.952-1.971,45.338,45.338,0,0,1,7.553.748l1.454.248-.374,3.737A81.029,81.029,0,0,0,934.278,189.46Z" transform="translate(-924.4 -185.4)"/><path class="j" d="M1484.3,397.672V369.258h4.481v1.286a10.432,10.432,0,0,1,5.355-1.744q4.111,0,6.019,2.509t1.908,8.423q0,5.914-2.177,8.322t-7.116,2.408a24.486,24.486,0,0,1-3.943-.374v7.578H1484.3Zm9.045-24.845a9.5,9.5,0,0,0-3.9.87l-.622.29v12.244a18.54,18.54,0,0,0,3.653.332q2.824,0,3.9-1.618t1.08-5.519Q1497.456,372.825,1493.345,372.827Z" transform="translate(-1460.766 -361.091)"/><path class="k" d="M1999.583,375.651v9.461a1.942,1.942,0,0,0,.479,1.349,2.28,2.28,0,0,0,1.349.559l-.126,3.442a8.746,8.746,0,0,1-5.519-1.534,15.757,15.757,0,0,1-6.683,1.534q-6.185,0-6.183-6.6,0-3.152,1.681-4.565a9.141,9.141,0,0,1,5.166-1.7l5.355-.458v-1.492a2.515,2.515,0,0,0-2.862-2.988q-2.654,0-6.641.332l-1.328.084-.164-3.194a36.085,36.085,0,0,1,8.322-1.08q3.8,0,5.477,1.639T1999.583,375.651Zm-9.3,5.145a2.792,2.792,0,0,0-2.862,3.115q0,2.862,2.53,2.862a16.1,16.1,0,0,0,4.4-.664l.748-.248v-5.523Z" transform="translate(-1938.41 -361.091)"/><path class="l" d="M2515,390.009V369.258h4.481v2.488a19.68,19.68,0,0,1,7.057-2.946v4.523a29.281,29.281,0,0,0-6.1,1.824l-.912.374v14.484H2515Z" transform="translate(-2448.144 -361.091)"/><path class="m" d="M2859.666,386.368l1.164-.126.084,3.363a43.071,43.071,0,0,1-8.381.954q-4.609,0-6.62-2.53t-2.013-8.091q0-11.04,9.007-11.038,8.713,0,8.713,9.5l-.29,3.236h-12.866a5.665,5.665,0,0,0,1.122,3.779q1.078,1.2,4.027,1.2C2855.572,386.616,2857.594,386.537,2859.666,386.368Zm-2.488-8.217q0-3.07-.975-4.3a3.985,3.985,0,0,0-3.3-1.223,4.135,4.135,0,0,0-3.384,1.286,6.852,6.852,0,0,0-1.1,4.233Z" transform="translate(-2763.22 -361.187)"/></g></g></svg>