<svg xmlns="http://www.w3.org/2000/svg" width="18.436" height="22.385" viewBox="0 0 18.436 22.385"><defs><style>.a{fill:none;}.b{fill:#c60018;}</style></defs><g transform="translate(-12.939 -5)"><path class="a" d="M46.166,9.425H43.012a.215.215,0,0,0-.214.214v.708h3.583V9.639A.215.215,0,0,0,46.166,9.425Z" transform="translate(-22.432 -3.324)"/><path class="b" d="M30.577,7.023H25.049V6.315A1.316,1.316,0,0,0,23.734,5H20.58a1.316,1.316,0,0,0-1.315,1.315v.708H13.737a.8.8,0,0,0-.8.8v.056a.8.8,0,0,0,.8.8H30.577a.8.8,0,0,0,.8-.8V7.82A.8.8,0,0,0,30.577,7.023Zm-6.629,0H20.366V6.315A.215.215,0,0,1,20.58,6.1h3.155a.215.215,0,0,1,.214.214Z" transform="translate(0)"/><path class="b" d="M31.038,20.849H16.97c-.818,0-1.481-.141-1.481.677L16.6,37.771a1.511,1.511,0,0,0,1.481,1.514H29.928a1.51,1.51,0,0,0,1.481-1.514l1.111-16.245C32.519,20.708,31.856,20.849,31.038,20.849ZM20.693,37.14a.416.416,0,0,1-.444-.385l-.437-12.522a.431.431,0,0,1,.859-.03l.437,12.522A.415.415,0,0,1,20.693,37.14Zm3.808-.4a.431.431,0,0,1-.86,0V24.215a.431.431,0,0,1,.86,0Zm3.393.011a.431.431,0,0,1-.859-.03L27.472,24.2a.431.431,0,0,1,.859.03Z" transform="translate(-1.916 -11.9)"/></g></svg>